<?xml version="1.0" encoding="UTF-8"?>
<svg xmlns="http://www.w3.org/2000/svg" xmlns:xlink="http://www.w3.org/1999/xlink" width="150px" height="130px" viewBox="0 0 150 130" version="1.1">
<g id="surface1">
<path style=" stroke:none;fill-rule:nonzero;fill:rgb(0%,0%,0%);fill-opacity:1;" d="M 36.25 37.679688 C 38.929688 39.285156 39.285156 42.320312 39.285156 61.070312 C 39.285156 77.679688 38.75 83.394531 36.605469 85.714844 C 34.285156 88.214844 35 88.570312 43.929688 88.929688 L 53.570312 89.285156 L 50 85.714844 C 47.144531 82.855469 46.429688 79.820312 46.429688 70.535156 C 46.429688 56.964844 49.644531 47.855469 55.894531 43.75 C 59.644531 41.429688 61.25 41.25 64.464844 42.855469 C 68.214844 45 68.214844 45.714844 66.964844 63.214844 C 66.25 74.105469 64.820312 82.320312 63.394531 83.929688 C 61.25 86.25 61.964844 86.605469 68.929688 85.894531 C 75.535156 85.535156 76.605469 85 74.820312 82.855469 C 71.964844 79.285156 73.75 53.929688 77.5 46.785156 C 82.320312 37.5 91.25 40.355469 93.75 51.785156 C 95.355469 58.929688 93.394531 69.644531 88.214844 83.75 C 85.894531 90 83.929688 97.320312 83.929688 100.179688 C 83.929688 110.535156 97.5 116.605469 104.105469 109.285156 C 108.035156 105 108.035156 102.320312 104.285156 106.070312 C 101.070312 109.464844 94.464844 109.820312 91.429688 106.785156 C 88.035156 103.394531 88.929688 97.855469 95.535156 80.535156 C 103.035156 61.25 103.570312 51.429688 97.679688 42.679688 C 91.964844 34.285156 84.464844 33.570312 77.144531 40.894531 L 71.785156 46.429688 L 68.929688 41.964844 C 65 35.894531 59.464844 36.429688 52.144531 43.214844 L 45.894531 49.105469 L 46.964844 42.320312 L 48.035156 35.714844 L 40.535156 35.714844 C 34.644531 35.894531 33.75 36.25 36.25 37.679688 Z M 36.25 37.679688 "/>
<path style=" stroke:none;fill-rule:nonzero;fill:rgb(0%,0%,0%);fill-opacity:1;" d="M 101.785156 95.355469 C 101.785156 95.714844 103.035156 96.605469 104.644531 97.144531 C 106.070312 97.679688 106.785156 97.5 106.25 96.429688 C 105.179688 94.644531 101.785156 93.929688 101.785156 95.355469 Z M 101.785156 95.355469 "/>
<path style=" stroke:none;fill-rule:nonzero;fill:rgb(0%,0%,0%);fill-opacity:1;" d="M 93.214844 100.894531 C 93.570312 103.394531 95.179688 104.464844 98.214844 104.464844 C 103.035156 104.464844 104.464844 100 100.179688 98.570312 C 98.394531 98.035156 98.035156 98.570312 98.75 100.714844 C 100.179688 104.464844 97.144531 104.464844 94.644531 100.355469 C 92.855469 97.679688 92.855469 97.679688 93.214844 100.894531 Z M 93.214844 100.894531 "/>
</g>
</svg>
